<?xml version="1.0" encoding="utf-8"?>
<!-- Generator: Adobe Illustrator 25.2.0, SVG Export Plug-In . SVG Version: 6.00 Build 0)  -->
<svg version="1.1" id="Layer_1" xmlns="http://www.w3.org/2000/svg" xmlns:xlink="http://www.w3.org/1999/xlink" x="0px" y="0px"
	 viewBox="0 0 29.69 29.62" style="enable-background:new 0 0 29.69 29.62;" xml:space="preserve">
<style type="text/css">
	.st0{fill:#0076E9;}
	.st1{fill:#FFFFFF;}
</style>
<g>
	<path class="st1" d="M0.49,9.83h6.16v19.79H0.49V9.83z M3.57,0c1.97,0,3.57,1.6,3.57,3.56c0,1.97-1.6,3.57-3.57,3.57
		C1.59,7.13,0,5.53,0,3.56C0,1.6,1.59,0,3.57,0"/>
	<path class="st1" d="M10.51,9.83h5.9v2.71h0.08c0.82-1.56,2.83-3.2,5.82-3.2c6.23,0,7.38,4.09,7.38,9.42v10.85h-6.15V20
		c0-2.3-0.04-5.25-3.2-5.25c-3.2,0-3.69,2.5-3.69,5.08v9.79h-6.15V9.83z"/>
</g>
</svg>
