<?xml version="1.0" encoding="utf-8"?>
<!-- Generator: Adobe Illustrator 25.2.0, SVG Export Plug-In . SVG Version: 6.00 Build 0)  -->
<svg version="1.1" id="Layer_1" xmlns="http://www.w3.org/2000/svg" xmlns:xlink="http://www.w3.org/1999/xlink" x="0px" y="0px"
	 viewBox="0 0 29.51 29.51" style="enable-background:new 0 0 29.51 29.51;" xml:space="preserve">
<style type="text/css">
	.st0{fill:#0076E9;}
	.st1{fill:#FFFFFF;}
</style>
<path class="st1" d="M22.57,5.27c-0.96,0-1.73,0.77-1.73,1.73s0.78,1.73,1.73,1.73c0.96,0,1.73-0.77,1.73-1.73
	S23.53,5.27,22.57,5.27"/>
<path class="st1" d="M14.88,7.49c-4.01,0-7.27,3.26-7.27,7.27c0,4.01,3.26,7.27,7.27,7.27c4.01,0,7.27-3.26,7.27-7.27
	C22.15,10.75,18.88,7.49,14.88,7.49 M14.88,19.41c-2.57,0-4.66-2.09-4.66-4.66c0-2.57,2.09-4.66,4.66-4.66
	c2.57,0,4.65,2.09,4.65,4.66C19.53,17.32,17.44,19.41,14.88,19.41"/>
<path class="st1" d="M20.65,29.51H8.87C3.98,29.51,0,25.54,0,20.65V8.86C0,3.98,3.98,0,8.87,0h11.78c4.89,0,8.86,3.98,8.86,8.86
	v11.78C29.51,25.54,25.54,29.51,20.65,29.51 M8.87,2.78c-3.36,0-6.09,2.73-6.09,6.09v11.78c0,3.36,2.73,6.09,6.09,6.09h11.78
	c3.36,0,6.09-2.73,6.09-6.09V8.86c0-3.36-2.73-6.09-6.09-6.09H8.87z"/>
</svg>
