<?xml version="1.0" encoding="utf-8"?>
<!-- Generator: Adobe Illustrator 25.2.0, SVG Export Plug-In . SVG Version: 6.00 Build 0)  -->
<svg version="1.1" id="Layer_1" xmlns="http://www.w3.org/2000/svg" xmlns:xlink="http://www.w3.org/1999/xlink" x="0px" y="0px"
	 viewBox="0 0 34.47 28.37" style="enable-background:new 0 0 34.47 28.37;" xml:space="preserve">
<style type="text/css">
	.st0{fill:#0076E9;}
	.st1{fill:#FFFFFF;}
</style>
<path class="st1" d="M34.33,3.4c-1.09,0.5-2.31,0.8-3.49,0.99c0.56-0.1,1.38-1.11,1.71-1.52c0.5-0.63,0.92-1.34,1.16-2.11
	c0.03-0.06,0.05-0.14-0.01-0.18c-0.08-0.03-0.12-0.02-0.18,0.01c-1.32,0.71-2.68,1.22-4.13,1.58c-0.12,0.03-0.21,0-0.29-0.08
	c-0.12-0.14-0.23-0.26-0.36-0.37c-0.61-0.52-1.26-0.93-2-1.23c-0.97-0.39-2.03-0.56-3.07-0.49c-1.02,0.07-2.01,0.35-2.91,0.82
	c-0.9,0.47-1.71,1.13-2.35,1.92c-0.66,0.82-1.15,1.79-1.4,2.81c-0.24,0.99-0.22,1.97-0.07,2.97c0.02,0.17,0.01,0.19-0.14,0.17
	C11.11,7.86,6.4,5.83,2.58,1.47C2.42,1.28,2.33,1.28,2.19,1.49C0.52,3.99,1.33,8.02,3.42,10c0.28,0.26,0.57,0.53,0.87,0.77
	c-0.11,0.02-1.5-0.13-2.74-0.77c-0.17-0.1-0.25-0.04-0.26,0.14c-0.02,0.27,0.01,0.52,0.04,0.81c0.32,2.54,2.08,4.89,4.49,5.8
	c0.29,0.12,0.6,0.23,0.91,0.28c-0.55,0.12-1.11,0.21-2.69,0.08c-0.2-0.04-0.27,0.06-0.2,0.25c1.18,3.22,3.73,4.18,5.65,4.73
	c0.26,0.05,0.51,0.05,0.77,0.11c-0.02,0.02-0.03,0.02-0.05,0.05c-0.63,0.97-2.83,1.69-3.86,2.04c-1.86,0.65-3.89,0.94-5.86,0.75
	c-0.31-0.05-0.38-0.04-0.47,0c-0.09,0.05-0.01,0.13,0.09,0.21c0.4,0.26,0.8,0.5,1.22,0.72c1.25,0.66,2.55,1.19,3.91,1.57
	c7.04,1.94,14.96,0.51,20.24-4.74c4.15-4.12,5.6-9.81,5.6-15.5c0-0.22,0.26-0.35,0.42-0.46c1.08-0.81,1.95-1.78,2.76-2.86
	c0.18-0.24,0.18-0.46,0.18-0.55V3.4C34.47,3.31,34.47,3.34,34.33,3.4"/>
</svg>
